<svg xmlns="http://www.w3.org/2000/svg" xmlns:xlink="http://www.w3.org/1999/xlink" width="500" zoomAndPan="magnify" viewBox="0 0 375 374.999991" height="500" preserveAspectRatio="xMidYMid meet" version="1.0"><defs><g/><clipPath id="8388b95c7d"><path d="M 192.101562 195.003906 L 227.5625 195.003906 L 227.5625 212.273438 L 192.101562 212.273438 Z M 192.101562 195.003906 " clip-rule="nonzero"/></clipPath><clipPath id="abd9f725ea"><path d="M 187 199 L 214 199 L 214 223 L 187 223 Z M 187 199 " clip-rule="nonzero"/></clipPath><clipPath id="17a698072a"><path d="M 185.59375 199.621094 L 213.152344 196.363281 L 216.234375 222.429688 L 188.675781 225.6875 Z M 185.59375 199.621094 " clip-rule="nonzero"/></clipPath><clipPath id="a052f626e7"><path d="M 185.59375 199.621094 L 213.152344 196.363281 L 216.234375 222.429688 L 188.675781 225.6875 Z M 185.59375 199.621094 " clip-rule="nonzero"/></clipPath><clipPath id="58c920e74e"><path d="M 172 217 L 194 217 L 194 231 L 172 231 Z M 172 217 " clip-rule="nonzero"/></clipPath><clipPath id="d73fadd09b"><path d="M 170.3125 229.953125 L 178.753906 213.210938 L 194.828125 221.320312 L 186.382812 238.058594 Z M 170.3125 229.953125 " clip-rule="nonzero"/></clipPath><clipPath id="2c89791d61"><path d="M 178.867188 212.992188 L 170.421875 229.734375 L 186.492188 237.839844 L 194.9375 221.097656 Z M 178.867188 212.992188 " clip-rule="nonzero"/></clipPath></defs><g fill="#e5e7eb" fill-opacity="1"><g transform="translate(110.137011, 219.680222)"><g><path d="M 5.4375 -66.21875 L 22.390625 -66.21875 L 22.390625 0 L 5.4375 0 Z M 5.4375 -66.21875 "/></g></g></g><g fill="#e5e7eb" fill-opacity="1"><g transform="translate(130.480412, 219.680222)"><g><path d="M 54.875 -24.09375 C 54.875 -23.976562 54.785156 -22.582031 54.609375 -19.90625 L 19.453125 -19.90625 C 20.171875 -17.40625 21.554688 -15.484375 23.609375 -14.140625 C 25.660156 -12.804688 28.234375 -12.140625 31.328125 -12.140625 C 33.640625 -12.140625 35.644531 -12.460938 37.34375 -13.109375 C 39.039062 -13.765625 40.75 -14.835938 42.46875 -16.328125 L 51.40625 -7.046875 C 46.695312 -1.816406 39.820312 0.796875 30.78125 0.796875 C 25.132812 0.796875 20.164062 -0.269531 15.875 -2.40625 C 11.59375 -4.550781 8.273438 -7.523438 5.921875 -11.328125 C 3.578125 -15.140625 2.40625 -19.453125 2.40625 -24.265625 C 2.40625 -29.023438 3.550781 -33.296875 5.84375 -37.078125 C 8.132812 -40.859375 11.300781 -43.816406 15.34375 -45.953125 C 19.394531 -48.097656 23.945312 -49.171875 29 -49.171875 C 33.820312 -49.171875 38.195312 -48.171875 42.125 -46.171875 C 46.050781 -44.179688 49.15625 -41.296875 51.4375 -37.515625 C 53.726562 -33.742188 54.875 -29.269531 54.875 -24.09375 Z M 29.09375 -37.125 C 26.476562 -37.125 24.289062 -36.378906 22.53125 -34.890625 C 20.78125 -33.398438 19.664062 -31.378906 19.1875 -28.828125 L 39 -28.828125 C 38.519531 -31.378906 37.398438 -33.398438 35.640625 -34.890625 C 33.890625 -36.378906 31.707031 -37.125 29.09375 -37.125 Z M 29.09375 -37.125 "/></g></g></g><g fill="#e5e7eb" fill-opacity="1"><g transform="translate(180.179719, 219.680222)"><g><path d="M 26.0625 -49.171875 C 34.09375 -49.171875 40.21875 -47.335938 44.4375 -43.671875 C 48.664062 -40.015625 50.78125 -34.410156 50.78125 -26.859375 L 50.78125 0 L 34.984375 0 L 34.984375 -6.25 C 32.546875 -1.550781 27.785156 0.796875 20.703125 0.796875 C 16.953125 0.796875 13.707031 0.144531 10.96875 -1.15625 C 8.238281 -2.46875 6.171875 -4.238281 4.765625 -6.46875 C 3.367188 -8.695312 2.671875 -11.238281 2.671875 -14.09375 C 2.671875 -18.675781 4.425781 -22.234375 7.9375 -24.765625 C 11.445312 -27.296875 16.863281 -28.5625 24.1875 -28.5625 L 33.8125 -28.5625 C 33.519531 -33.675781 30.101562 -36.234375 23.5625 -36.234375 C 21.238281 -36.234375 18.882812 -35.859375 16.5 -35.109375 C 14.125 -34.367188 12.101562 -33.34375 10.4375 -32.03125 L 4.734375 -43.546875 C 7.410156 -45.328125 10.664062 -46.707031 14.5 -47.6875 C 18.332031 -48.675781 22.1875 -49.171875 26.0625 -49.171875 Z M 25.4375 -9.90625 C 27.394531 -9.90625 29.117188 -10.378906 30.609375 -11.328125 C 32.097656 -12.285156 33.164062 -13.6875 33.8125 -15.53125 L 33.8125 -19.71875 L 26.5 -19.71875 C 21.5625 -19.71875 19.09375 -18.082031 19.09375 -14.8125 C 19.09375 -13.320312 19.65625 -12.128906 20.78125 -11.234375 C 21.914062 -10.347656 23.46875 -9.90625 25.4375 -9.90625 Z M 25.4375 -9.90625 "/></g></g></g><g fill="#e5e7eb" fill-opacity="1"><g transform="translate(228.629845, 219.680222)"><g><path d="M 23.921875 -46.578125 L 35.421875 -46.578125 L 35.421875 -33.90625 L 24.359375 -33.90625 L 24.359375 0 L 7.40625 0 L 7.40625 -33.90625 L 0.359375 -33.90625 L 0.359375 -46.578125 L 7.40625 -46.578125 L 7.40625 -47.828125 C 7.40625 -53.710938 9.175781 -58.378906 12.71875 -61.828125 C 16.257812 -65.285156 21.210938 -67.015625 27.578125 -67.015625 C 29.710938 -67.015625 31.789062 -66.804688 33.8125 -66.390625 C 35.84375 -65.972656 37.507812 -65.347656 38.8125 -64.515625 L 34.625 -52.5625 C 32.957031 -53.507812 31.257812 -53.984375 29.53125 -53.984375 C 27.75 -53.984375 26.367188 -53.445312 25.390625 -52.375 C 24.410156 -51.3125 23.921875 -49.738281 23.921875 -47.65625 Z M 23.921875 -46.578125 "/></g></g></g><g clip-path="url(#8388b95c7d)"><path fill="#e5e7eb" d="M 192.101562 195.003906 L 227.5625 195.003906 L 227.5625 212.273438 L 192.101562 212.273438 Z M 192.101562 195.003906 " fill-opacity="1" fill-rule="nonzero"/></g><g clip-path="url(#abd9f725ea)"><g clip-path="url(#17a698072a)"><g clip-path="url(#a052f626e7)"><path fill="#f9faf8" d="M 207.546875 201.738281 C 194.550781 203.214844 188.289062 210.09375 189.175781 222.699219 C 189.1875 222.859375 188.957031 222.894531 188.917969 222.742188 C 187.851562 218.714844 187.523438 214.96875 188.179688 211.601562 C 190.351562 200.488281 203.296875 197.53125 212.996094 199.820312 C 213.480469 199.933594 213.644531 200.519531 213.296875 200.875 C 206.726562 207.523438 209.582031 223.210938 191.113281 218.449219 C 192.859375 209.566406 197.886719 203.597656 207.546875 201.738281 " fill-opacity="1" fill-rule="evenodd"/></g></g></g><g clip-path="url(#58c920e74e)"><g clip-path="url(#d73fadd09b)"><g clip-path="url(#2c89791d61)"><path fill="#e5e7eb" d="M 175.171875 227.441406 C 179.117188 219.53125 184.988281 217.175781 192.898438 220.710938 C 193 220.757812 193.074219 220.617188 192.984375 220.554688 C 190.636719 218.929688 188.300781 217.839844 185.984375 217.460938 C 178.328125 216.21875 173.445312 223.746094 172.683594 230.449219 C 172.644531 230.785156 172.984375 231.027344 173.292969 230.890625 C 179.085938 228.28125 188.53125 233.796875 189.71875 220.941406 C 183.597656 219.953125 178.59375 221.738281 175.171875 227.441406 " fill-opacity="1" fill-rule="evenodd"/></g></g></g></svg>